<mxfile host="app.diagrams.net" modified="2022-09-23T17:35:54.911Z" agent="5.0 (Windows NT 10.0; Win64; x64) AppleWebKit/537.36 (KHTML, like Gecko) Chrome/103.0.5060.134 Safari/537.36 Edg/103.0.1264.71" etag="8nnesq7IIbjpSJK_Fm45" version="20.3.0" type="github">
  <diagram id="XtRSlO1tdxcmVvOqXE6s" name="第 1 页">
    <mxGraphModel dx="1422" dy="800" grid="1" gridSize="10" guides="1" tooltips="1" connect="1" arrows="1" fold="1" page="1" pageScale="1" pageWidth="827" pageHeight="1169" math="0" shadow="0">
      <root>
        <mxCell id="0" />
        <mxCell id="1" parent="0" />
        <mxCell id="kA1PAtwRovai2M8WOno_-13" style="edgeStyle=orthogonalEdgeStyle;rounded=0;orthogonalLoop=1;jettySize=auto;html=1;exitX=1;exitY=0.5;exitDx=0;exitDy=0;entryX=0.75;entryY=0;entryDx=0;entryDy=0;" edge="1" parent="1" source="kA1PAtwRovai2M8WOno_-14" target="kA1PAtwRovai2M8WOno_-19">
          <mxGeometry relative="1" as="geometry" />
        </mxCell>
        <mxCell id="kA1PAtwRovai2M8WOno_-14" value="" style="rounded=0;whiteSpace=wrap;html=1;" vertex="1" parent="1">
          <mxGeometry x="400" y="200" width="120" height="60" as="geometry" />
        </mxCell>
        <mxCell id="kA1PAtwRovai2M8WOno_-15" style="edgeStyle=orthogonalEdgeStyle;rounded=0;orthogonalLoop=1;jettySize=auto;html=1;exitX=0.75;exitY=0;exitDx=0;exitDy=0;entryX=0;entryY=0.5;entryDx=0;entryDy=0;" edge="1" parent="1" source="kA1PAtwRovai2M8WOno_-17" target="kA1PAtwRovai2M8WOno_-14">
          <mxGeometry relative="1" as="geometry" />
        </mxCell>
        <mxCell id="kA1PAtwRovai2M8WOno_-26" style="edgeStyle=orthogonalEdgeStyle;rounded=0;orthogonalLoop=1;jettySize=auto;html=1;exitX=0.5;exitY=1;exitDx=0;exitDy=0;" edge="1" parent="1" source="kA1PAtwRovai2M8WOno_-17" target="kA1PAtwRovai2M8WOno_-24">
          <mxGeometry relative="1" as="geometry" />
        </mxCell>
        <mxCell id="kA1PAtwRovai2M8WOno_-17" value="" style="rounded=0;whiteSpace=wrap;html=1;" vertex="1" parent="1">
          <mxGeometry x="180" y="290" width="170" height="100" as="geometry" />
        </mxCell>
        <mxCell id="kA1PAtwRovai2M8WOno_-18" style="edgeStyle=orthogonalEdgeStyle;rounded=0;orthogonalLoop=1;jettySize=auto;html=1;exitX=0.75;exitY=1;exitDx=0;exitDy=0;entryX=1;entryY=0.5;entryDx=0;entryDy=0;" edge="1" parent="1" source="kA1PAtwRovai2M8WOno_-19" target="kA1PAtwRovai2M8WOno_-21">
          <mxGeometry relative="1" as="geometry" />
        </mxCell>
        <mxCell id="kA1PAtwRovai2M8WOno_-19" value="" style="rounded=0;whiteSpace=wrap;html=1;" vertex="1" parent="1">
          <mxGeometry x="460" y="320" width="120" height="60" as="geometry" />
        </mxCell>
        <mxCell id="kA1PAtwRovai2M8WOno_-20" style="edgeStyle=orthogonalEdgeStyle;rounded=0;orthogonalLoop=1;jettySize=auto;html=1;exitX=0;exitY=0.5;exitDx=0;exitDy=0;entryX=0.75;entryY=1;entryDx=0;entryDy=0;" edge="1" parent="1" source="kA1PAtwRovai2M8WOno_-21" target="kA1PAtwRovai2M8WOno_-17">
          <mxGeometry relative="1" as="geometry">
            <mxPoint x="310" y="440" as="targetPoint" />
          </mxGeometry>
        </mxCell>
        <mxCell id="kA1PAtwRovai2M8WOno_-21" value="" style="rounded=0;whiteSpace=wrap;html=1;" vertex="1" parent="1">
          <mxGeometry x="410" y="440" width="120" height="60" as="geometry" />
        </mxCell>
        <mxCell id="kA1PAtwRovai2M8WOno_-23" style="edgeStyle=orthogonalEdgeStyle;rounded=0;orthogonalLoop=1;jettySize=auto;html=1;exitX=0.5;exitY=1;exitDx=0;exitDy=0;" edge="1" parent="1" source="kA1PAtwRovai2M8WOno_-22" target="kA1PAtwRovai2M8WOno_-17">
          <mxGeometry relative="1" as="geometry" />
        </mxCell>
        <mxCell id="kA1PAtwRovai2M8WOno_-22" value="" style="rounded=0;whiteSpace=wrap;html=1;" vertex="1" parent="1">
          <mxGeometry x="180" y="50" width="170" height="100" as="geometry" />
        </mxCell>
        <mxCell id="kA1PAtwRovai2M8WOno_-24" value="" style="rounded=0;whiteSpace=wrap;html=1;" vertex="1" parent="1">
          <mxGeometry x="180" y="530" width="170" height="100" as="geometry" />
        </mxCell>
      </root>
    </mxGraphModel>
  </diagram>
</mxfile>
